<svg xmlns="http://www.w3.org/2000/svg" width="24" height="24" viewBox="0 0 26 26"><g fill="#CCCCCC"><defs><mask id="pepiconsPopCodeCircleFilled0"><path fill="#CCCCCC" d="M0 0h26v26H0z"/><g fill="#000" fill-rule="evenodd" clip-rule="evenodd"><path d="M4.59 12.331a1 1 0 0 1 1.412-.074l3.334 3a1 1 0 0 1-1.338 1.486l-3.334-3a1 1 0 0 1-.074-1.412Z"/><path d="M9.41 9.331a1 1 0 0 1-.074 1.412l-3.334 3a1 1 0 1 1-1.338-1.486l3.334-3a1 1 0 0 1 1.412.074Zm12 3a1 1 0 0 1-.074 1.412l-3.334 3a1 1 0 1 1-1.338-1.486l3.334-3a1 1 0 0 1 1.412.074Z"/><path d="M16.59 9.331a1 1 0 0 1 1.412-.074l3.334 3a1 1 0 0 1-1.338 1.486l-3.334-3a1 1 0 0 1-.074-1.412Zm-1.827-2.796a1 1 0 0 1 .702 1.228l-3 11a1 1 0 0 1-1.93-.526l3-11a1 1 0 0 1 1.228-.702Z"/></g></mask></defs><circle cx="13" cy="13" r="13" fill="#CCCCCC" mask="url(#pepiconsPopCodeCircleFilled0)"/></g></svg>